<?xml version="1.0" encoding="UTF-8"?>
<svg xmlns="http://www.w3.org/2000/svg" viewBox="0 0 711.89 605.37">
  <defs>
    <style>
      .cls-1 {
        fill: #c5553a;
      }

      .cls-2 {
        fill: #d9a049;
      }

      .cls-3 {
        fill: #5c1a2a;
      }

      .cls-4 {
        fill: #7b1f3d;
      }

      .cls-5 {
        fill: #9b2336;
      }

      .cls-6 {
        fill: #d48740;
      }

      .cls-7 {
        fill: #b93a2d;
      }

      .cls-8 {
        fill: #cc6e3d;
      }

      .cls-9 {
        fill: #e2b85b;
      }
    </style>
  </defs>
  <g id="Cow">
    <path class="cls-9" d="M513.25,195.31s-2.98,1.67-5.4,5.4-4.47,8.74-4.47,11.72,2.05,6.51,2.05,6.51c0,0,2.42,2.23,2.88,5.02s-.09,10.6,3.44,14.7c0,0-7.07,7.44-8.37,10.79,0,0-3.91,1.86-4.47,2.79s-3.16,3.91-3.16,3.91c0,0,0,.56,1.49,2.23s6.51,1.86,7.26,1.49,3.35-2.05,5.21-2.79,5.95-5.02,9.86-5.95c0,0,13.4,5.77,25.12,5.77s28.47-1.3,48.93-7.63c4.32-1.33,12.74-1.53,14.88-1.3,7.12.74,16.09.64,20.56-.28,11.35-2.33,16.79-1.37,20.63-.52,2.28.51,11.65,3.59,14.63,3.59s10.6,1.12,10.6,1.12l6.51,2.6,3.91-4.47-7.81-10.05s-10.79,0-16.56-8.37-12.28-17.49-20.65-21.4c0,0-1.67-4.65-3.91-4.65-1.1,0-4.4-.53-8.56.63s-9.46,4.1-11.54,4.76c-4.09,1.3-14.88,4.28-29.02-.93s-22.51-7.81-29.58-8.19-13.58.19-20.28-1.12-12.84-1.12-15.26.74c0,0-4.65-.56-8.93-6.14Z"/>
  </g>
  <g id="brisket">
    <path class="cls-2" d="M538.27,237.06l-18.7,14.06s6.21,2.95,15.21,4.76c2.74.55,6.03.85,8.65.99,0,0,0,0,0,0h0s2.19-3.81,2.37-19.3l-7.54-.51Z"/>
  </g>
  <g id="chuck">
    <path class="cls-3" d="M544.14,201.5s-.42,14.31-.7,16.26c0,0,2.65,7.81,2.37,19.81l-35.97-2.43s-1.01-4.87-1.27-8.02-.44-5.02-1.79-6.6-3.78-5.43-3.39-8.09,1.84-8.52,4.47-11.72,3.25-3.84,5.4-5.4c0,0,2.68,3.39,4.87,4.5s4.06,1.64,4.06,1.64c0,0,2.29-1.72,6.47-1.57s9.39,1.03,11.45,1.25,4.03.36,4.03.36Z"/>
  </g>
  <g id="rib">
    <path class="cls-4" d="M574.49,205.52l-.91,6.8s4.19,8.93,5.86,20.65l-33.63,4.6s-.28-14.09-2.37-19.81l.7-16.26s5.21-.1,10.6.22,10.54,1.1,13.57,1.96,6.18,1.84,6.18,1.84Z"/>
  </g>
  <g id="short_loin">
    <path class="cls-5" d="M602.04,212.95l3.65,27.35-26.26-7.33s-1.26-10.05-5.86-20.65l.91-6.8s5.98,2.03,10.26,3.56,7.69,3.26,17.29,3.87Z"/>
  </g>
  <g id="sirloin">
    <path class="cls-7" d="M625.47,206.98l3.36,27.81-19.16,6.63-3.98-1.11-3.65-27.35s7.04.2,11.54-1.23c5.59-1.78,11.89-4.75,11.89-4.75Z"/>
  </g>
  <g id="short_plate">
    <path class="cls-6" d="M545.81,237.57l33.63-4.6s1.77,7.32.95,19.85c0,0-7.51,2.05-16.58,2.9s-17.77,1.32-20.37,1.15c0,0,1.26-.88,1.81-10.09l.56-9.21Z"/>
  </g>
  <g id="Round">
    <path class="cls-1" d="M625.47,206.98l3.36,27.81-19.16,6.63,21.22,5.92s8.75-1.82,15.26-.64,14.55,3.82,18.16,4.07,8.84.41,10.6,1.12l6.51,2.6,3.91-4.47-7.81-10.05s-8.89-.44-13.19-4.74c-5.6-5.6-8.78-11.68-13.7-17.08s-10.32-7.95-10.32-7.95c0,0-1.21-4.53-3.91-4.65s-7.23-.14-10.94,1.43Z"/>
  </g>
  <g id="Flank">
    <path class="cls-8" d="M630.89,247.33l-51.46-14.36s1.71,6.42.95,19.85c0,0,6.78-1.55,13.23-3.55,3.62-1.12,10.12-1.43,16.81-1.13s14.02,1,20.47-.81Z"/>
  </g>
</svg>