<?xml version="1.0" encoding="UTF-8"?><svg id="tendon" xmlns="http://www.w3.org/2000/svg" viewBox="0 0 711.89 605.37"><path d="M657.98,227.13s2.86,3.95,3.48,4.8,1.59,2.15,3,3.18,2.41,1.82,4.34,2.7,2.96,1.23,4.64,1.57,2.44.53,4.09.59h0l7.81,10.05-11.27-9.43s-3.24-.28-5.88-1.56-3.1-1.69-4.74-2.91-2.49-2.6-3.21-3.59-2.52-3.53-2.52-3.53c0,0,.21-.64.26-1.87" fill="#d7c8a7"/><path d="M538.27,237.06l-18.7,14.06s-2.66.88-4.35,2.09-2,1.47-2.69,2-1.19.95-1.72,1.27-2.42,1.27-3.32,1.75c0,0,.92-4.17,1.06-4.8l29.72-16.38" fill="#d7c8a7"/></svg>