<?xml version="1.0" encoding="UTF-8"?>
<svg id="Layer_1" xmlns="http://www.w3.org/2000/svg" version="1.1" viewBox="0 0 119.97 85.62">
  <!-- Generator: Adobe Illustrator 29.8.6, SVG Export Plug-In . SVG Version: 2.1.1 Build 1)  -->
  <defs>
    <style>
      .st0 {
        fill: #f15b40;
      }

      .st1 {
        fill: #b11116;
      }

      .st2 {
        fill: #ed1c24;
      }

      .st3 {
        fill: #d71920;
      }

      .st4 {
        fill: #f37153;
      }

      .st5 {
        fill: #f69679;
      }

      .st6 {
        fill: #f9aa8f;
      }

      .st7 {
        fill: #fbbea7;
      }

      .st8 {
        fill: #ef4130;
      }

      .st9 {
        fill: #f58466;
      }

      .st10 {
        fill: #c4161c;
      }
    </style>
  </defs>
  <path class="st9" d="M79.57,20.15s0,.03,0,.05c-.7,5.26-.64,11.69-.17,17.76,4.56-1,8.4-2.06,11-3.12.25-5.63,1.35-11.33,3.3-16.38-3.93.66-8.25,1.45-14.13,1.69Z"/>
  <path class="st8" d="M56.35,34.89c.41,2.26.69,4.51.86,6.72,3.65-.45,7.32-.97,10.86-1.53-.25-6.12-1.47-15.46-2.7-20.58,0-.04-.01-.08,0-.11-7.27-1.17-11.91-3.15-15.34-3.11-.14,0-.27,0-.41.01,2.88,4.24,5.39,11.17,6.73,18.6Z"/>
  <path class="st4" d="M68.65,39.98c3.6-.59,7.05-1.23,10.18-1.9-.48-6.29-.51-12.84.15-17.91-.97.03-1.98.05-3.04.05-3.79,0-7.08-.3-9.97-.74,1.22,5.15,2.43,14.4,2.68,20.5Z"/>
  <path class="st3" d="M55.37,58.61c1.32-4.86,1.78-10.55,1.38-16.51-5.98.72-11.9,1.25-17.09,1.5.22,3.49.59,10.17-.99,14.16,6.19.7,15.17.83,16.69.85Z"/>
  <path class="st0" d="M78.87,38.66c-3.2.68-6.72,1.34-10.4,1.93-.03,0-.05.02-.08.02,0,0,0,0-.01,0,0,0,0,0,0,0-3.61.58-7.37,1.12-11.11,1.57.41,6.09-.07,11.9-1.43,16.85,8.87-.83,18.17-2.38,25.82-3.48-1.21-3.9-2.24-10.22-2.77-16.89Z"/>
  <path class="st5" d="M90.37,35.47c-2.63,1.04-6.44,2.09-10.93,3.07.57,6.95,1.67,13.35,2.77,16.88,0,.02,0,.03,0,.05,4.54-.64,8.46-1.11,11.3-1.14-2.33-5.28-3.37-12-3.15-18.85Z"/>
  <path class="st7" d="M110.53,49.73c-8.03-.63-14.26,2.52-16.48,4.8-.02.02-.04.03-.06.05,1.88,3.36,2.46,9.06,1.92,13.64-.61,5.16-4.17,8.35-5.56,10.01-2.31,2.73-2.06,4.61,1.76,4.61,4.94,0,5.23-2.1,6.25-5.76,1.46-5.22,5.05-15.59,5.42-21.28,2.18,3.64,3.5,13.28,3.5,16.37,0,5.71-2.93,8.06-4.32,9.71-2.31,2.73-2.06,4.61,1.76,4.61,4.94,0,5.23-2.1,6.25-5.76,1.46-5.22,2.67-20.33,1.27-22.57-1.03-1.66-2.07-3.93-1.69-8.42Z"/>
  <path class="st2" d="M34.59,57.86c2.98,2.91,6.07,14.9,2.61,19.98-3.2,4.7-3.59,5.77.58,5.77,2.61,0,5.5-1.34,5.5-3.94,0-3.89-.06-12.5,1.47-18.72,2.65,4.09,4.87,14.3,1.74,18.88-3.2,4.7-3.59,5.77.58,5.77,2.61,0,5.5-1.34,5.5-3.94,0-4.47.47-16.17,2.83-22.34-1.49-.01-15.32-.18-20.82-1.48Z"/>
  <path class="st6" d="M117.69,57.66c-.61-8.86,1.7-14.26,1.64-26.52-.06-12.26-6.01-13.35-14.93-13.65-3.63-.12-6.74.31-10.08.86,0,.05,0,.1-.02.15-4.38,11.17-4.52,25.62-.36,35.32,2.53-2.32,8.75-5.3,16.64-4.67,0,0,0,0,0,0,.15-1.44.44-3.1.91-5.02,2.06-8.43,3.28-17.72.24-20.57,7.83,0,4.49,28.09,4.49,34.1-2.67,2.85-2.67,9.16,3.1,10.07-2.18-3.4,3.64-6.8-1.64-10.07Z"/>
  <path class="st3" d="M34.08,57.13c.96.28,2.33.52,3.92.71,1.59-3.85,1.22-10.57,1-14.06-2.01.09-3.91.14-5.65.14-2.71,0-5.03-.12-6.84-.37.17.39.35.78.52,1.18,1.77,4.08,1.67,9.49,6.71,12.53.07-.11.2-.17.33-.13Z"/>
  <path class="st1" d="M31.37,18.44s0-.04.01-.06c-3.66-1.08-5.65-3.29-8.03-4.5.39-1.93-2.11-3.94-5.43-7.59C13.96,1.94,14.66,0,14.66,0c-1.87,3.26-.53,7.37,1.9,9.68,1.31,1.25,1.51,2.65,1.45,3.56-.18.03-.36.07-.54.11-1.3-1.07-3.61-2.07-6.5-3.63-5.18-2.8-5.16-4.86-5.16-4.86-.72,3.62,1.93,7.13,5,8.5,1.23.55,1.9,1.39,2.26,2.14-1.6,1.31-2.73,3-3.34,4.73-1.27,3.64-7.34,7.34-8.92,8.98-1.58,1.64-.62,3.4.59,4.91,1.21,1.52,3.65,2.55,5.84,1.4,2.18-1.15,3.82.06,6.98.18,3.16.12,3.76-1.15,5.76-1.27.96-.06,2.02.94,3.15,2.65,3.63-2.69,7.86-12.26,8.22-18.62Z"/>
  <path class="st10" d="M28.98,29.47c-1.7,3.81-3.7,6.76-5.5,8.08,0,0-.01,0-.02.01.89,1.44,1.83,3.3,2.79,5.42.05-.02.11-.03.16-.02,2.98.44,7.47.49,12.75.25.03,0,.05-.02.08-.02.03,0,.07,0,.09.01,5.23-.25,11.23-.78,17.28-1.51-.17-2.2-.45-4.44-.86-6.69-1.34-7.43-3.86-14.36-6.73-18.52-.03-.04-.05-.09-.05-.14-4.55.38-9.31,2.68-12.98,2.68-1.56,0-2.89-.18-4.06-.47-.19,3.14-1.27,7.12-2.97,10.93Z"/>
</svg>