<?xml version="1.0" encoding="UTF-8"?>
<svg id="Cow" xmlns="http://www.w3.org/2000/svg" viewBox="0 0 879.8 664.92" preserveAspectRatio="xMidYMid meet">
  <path fill="#e2b85b" d="M513.25,254.87s-2.98,1.67-5.4,5.4-4.47,8.74-4.47,11.72,2.05,6.51,2.05,6.51c0,0,2.42,2.23,2.88,5.02s-.09,10.6,3.44,14.7c0,0-7.07,7.44-8.37,10.79,0,0-3.91,1.86-4.47,2.79s-3.16,3.91-3.16,3.91c0,0,0,.56,1.49,2.23s6.51,1.86,7.26,1.49,3.35-2.05,5.21-2.79,5.95-5.02,9.86-5.95c0,0,13.4,5.77,25.12,5.77s28.47-1.3,48.93-7.63c4.32-1.33,12.74-1.53,14.88-1.3,7.12.74,16.09.64,20.56-.28,11.35-2.33,16.79-1.37,20.63-.52,2.28.51,11.65,3.59,14.63,3.59s10.6,1.12,10.6,1.12l6.51,2.6,3.91-4.47-7.81-10.05s-10.79,0-16.56-8.37-12.28-17.49-20.65-21.4c0,0-1.67-4.65-3.91-4.65-1.1,0-4.4-.53-8.56.63s-9.46,4.1-11.54,4.76c-4.09,1.3-14.88,4.28-29.02-.93s-22.51-7.81-29.58-8.19-13.58.19-20.28-1.12-12.84-1.12-15.26.74c0,0-4.65-.56-8.93-6.14Z"/>
</svg>