<?xml version="1.0" encoding="UTF-8"?><svg id="Cow" xmlns="http://www.w3.org/2000/svg" viewBox="0 0 711.89 622.56"><path d="M640.32,227.38c8.37,3.91,14.88,13.02,20.65,21.4s16.56,8.37,16.56,8.37l7.81,10.05-3.91,4.47-6.51-2.6s-7.63-1.12-10.6-1.12-12.35-3.08-14.63-3.59c-3.84-.85-9.28-1.8-20.63.52-4.47.92-13.44,1.02-20.56.28-2.14-.22-10.57-.03-14.88,1.3-20.47,6.33-37.21,7.63-48.93,7.63s-25.12-5.77-25.12-5.77c-3.91.93-8,5.21-9.86,5.95s-4.47,2.42-5.21,2.79-5.77.19-7.26-1.49-1.49-2.23-1.49-2.23c0,0,2.6-2.98,3.16-3.91s4.47-2.79,4.47-2.79c1.3-3.35,8.37-10.79,8.37-10.79-3.53-4.09-2.94-11.91-3.44-14.7-.46-2.58-1.99-3.78-2.91-5.29-.85-1.39-2.02-3.27-2.02-6.24s2.05-8,4.47-11.72,5.4-5.4,5.4-5.4c4.28,5.58,8.93,6.14,8.93,6.14,2.42-1.86,8.56-2.05,15.26-.74s13.21.74,20.28,1.12,15.44,2.98,29.58,8.19,24.93,2.23,29.02.93c2.08-.66,7.25-3.56,11.54-4.76s7.46-.63,8.56-.63l10.52,3.89,3.28,3.37-9.9-2.61Z" fill="#e2b85b"/></svg>