<?xml version="1.0" encoding="UTF-8"?><svg id="shank" xmlns="http://www.w3.org/2000/svg" viewBox="0 0 711.89 622.56"><path d="M643.06,259.92l19.01-9.96s2.89,3.71,6.82,5.22,7.31,2.03,8.63,1.98l-13.6,10.78s-3.73-.34-10.17-2.29-10.55-2.14-11.71-2.15l1.01-3.57Z" fill="#cc6e3d"/><path d="M509.84,252.32l28.43,1.92-18.7,14.06s-2.45.64-5.06,2.59-3.57,2.8-4.43,3.19-4.4,2.32-4.99,2.64-.78.56-2.49.49c-2.41-.11-4.07-.74-4.75-1.16s-1.75-1.86-1.93-2.29c-.23-.55-.14-.45.2-.85s1.36-1.56,1.83-2.17.75-1.04,1.3-1.71c.43-.52,1.25-1.04,4.14-2.41,0,0,1.16-3.19,8.37-10.79,0,0-1.43-1.77-1.92-3.52Z" fill="#cc6e3d"/></svg>